<?xml version="1.0" encoding="UTF-8" standalone="no"?>
<!-- Created with Inkscape (http://www.inkscape.org/) -->

<svg
   xmlns:dc="http://purl.org/dc/elements/1.1/"
   xmlns:cc="http://creativecommons.org/ns#"
   xmlns:rdf="http://www.w3.org/1999/02/22-rdf-syntax-ns#"
   xmlns:svg="http://www.w3.org/2000/svg"
   xmlns="http://www.w3.org/2000/svg"
   xmlns:sodipodi="http://sodipodi.sourceforge.net/DTD/sodipodi-0.dtd"
   xmlns:inkscape="http://www.inkscape.org/namespaces/inkscape"
   width="210mm"
   height="297mm"
   id="svg2"
   version="1.1"
   inkscape:version="0.48.4 r9939"
   sodipodi:docname="Logos_(inkscape).svg">
  <defs
     id="defs4">
    <clipPath
       id="clipPath2999"
       clipPathUnits="userSpaceOnUse">
      <path
         id="path3001"
         d="m 0,841.89 595.276,0 L 595.276,0 0,0 0,841.89 z" />
    </clipPath>
  </defs>
  <sodipodi:namedview
     id="base"
     pagecolor="#ffffff"
     bordercolor="#666666"
     borderopacity="1.0"
     inkscape:pageopacity="0.0"
     inkscape:pageshadow="2"
     inkscape:zoom="1.4"
     inkscape:cx="335.14054"
     inkscape:cy="515.81035"
     inkscape:document-units="px"
     inkscape:current-layer="layer1"
     showgrid="false"
     inkscape:window-width="1920"
     inkscape:window-height="1017"
     inkscape:window-x="-8"
     inkscape:window-y="-8"
     inkscape:window-maximized="1" />
  <metadata
     id="metadata7">
    <rdf:RDF>
      <cc:Work
         rdf:about="">
        <dc:format>image/svg+xml</dc:format>
        <dc:type
           rdf:resource="http://purl.org/dc/dcmitype/StillImage" />
      </cc:Work>
    </rdf:RDF>
  </metadata>
  <g
     inkscape:label="Capa 1"
     inkscape:groupmode="layer"
     id="layer1">
    <g
       id="g3767">
      <g
         transform="matrix(1.25,0,0,-1.25,54.438015,321.61545)"
         id="g3003">
        <path
           id="path3005"
           style="fill:#2e9cd6;fill-opacity:1;fill-rule:nonzero;stroke:none"
           d="m 0,0 c -1.562,-0.385 -2.626,-1.108 -3.191,-2.219 l 0,-21.729 -0.024,0 0,-21.819 c 0.431,-0.838 1.178,-1.471 2.196,-1.903 l 26.122,0 c 0.746,0.205 1.379,0.453 1.923,0.793 0.847,0.618 1.403,1.542 1.726,2.305 0.246,0.583 0.339,1.653 0.294,1.953 -0.104,0.683 -0.361,1.665 -0.93,2.414 -0.402,0.527 -0.957,0.939 -1.724,1.047 -0.611,0.225 -2.195,0.34 -4.753,0.316 -6.542,0 -10.955,0.747 -13.286,2.218 -1.336,0.861 -2.016,2.061 -2.016,3.646 0,1.607 1.042,2.715 3.079,3.304 1.313,0.385 3.667,0.656 7.062,0.792 3.734,0.158 6.338,0.385 7.786,0.681 1.93,0.384 3.383,1.016 4.372,1.868 0.098,0.084 0.247,0.246 0.364,0.395 0.089,0.11 0.259,0.552 0.299,0.751 0.182,0.916 0.307,2.524 -0.281,3.187 -0.951,1.04 -2.558,1.788 -4.731,2.217 -1.448,0.295 -4.051,0.522 -7.786,0.679 -3.396,0.159 -5.75,0.409 -7.062,0.816 -2.037,0.588 -3.079,1.675 -3.079,3.28 0,1.585 0.679,2.809 2.015,3.646 2.331,1.493 6.745,2.216 13.287,2.216 2.535,0 4.119,0.115 4.753,0.34 2.363,0.864 2.603,1.969 2.603,1.969 0.24,0.909 0.377,2.817 -0.181,3.985 -0.544,0.793 -1.132,1.381 -1.788,1.765 -0.973,0.59 -2.241,0.951 -3.803,1.087 L 0,0 z"
           inkscape:connector-curvature="0" />
      </g>
      <g
         transform="matrix(1.25,0,0,-1.25,135.35964,314.63058)"
         id="g3007">
        <path
           id="path3009"
           style="fill:#2e9cd6;fill-opacity:1;fill-rule:nonzero;stroke:none"
           d="m 0,0 c 0.852,0.33 1.457,0.644 1.832,0.975 1.584,1.427 1.72,2.695 0.407,3.804 -9.258,7.901 -19.126,12.517 -29.583,13.83 -1.856,0.248 -3.713,0.385 -5.569,0.385 l -0.045,0 c -1.879,0 -3.734,-0.137 -5.59,-0.385 -10.48,-1.313 -20.327,-5.929 -29.585,-13.83 -1.312,-1.109 -1.177,-2.377 0.43,-3.804 0.385,-0.36 1.064,-0.701 2.037,-1.063 2.234,-0.787 4.006,-1.087 4.713,-1.208 0.164,-0.028 0.67,-0.076 0.865,-0.086 4.154,-0.178 13.185,-0.192 27.13,-0.065 l 0.045,0 c 14.174,-0.13 23.303,-0.113 27.346,0.076 0.108,0.005 0.467,0.047 0.636,0.077 0.706,0.126 2.428,0.421 4.464,1.121 C -0.388,-0.145 -0.074,-0.03 0,0"
           inkscape:connector-curvature="0" />
      </g>
      <g
         transform="matrix(1.25,0,0,-1.25,161.15064,347.9277)"
         id="g3011">
        <path
           id="path3013"
           style="fill:#909294;fill-opacity:1;fill-rule:nonzero;stroke:none"
           d="M 0,0 1.235,0 C 3.24,0 4.67,0.305 5.525,0.914 6.38,1.521 6.807,2.527 6.807,3.93 6.807,5.17 6.419,6.092 5.646,6.687 4.87,7.284 3.683,7.582 2.084,7.582 L 0,7.582 0,0 z m -0.038,-11.973 3.063,0 c 1.796,0 3.119,0.333 3.967,1.005 0.848,0.669 1.272,1.706 1.272,3.108 0,1.525 -0.442,2.68 -1.327,3.468 -0.886,0.788 -2.19,1.182 -3.912,1.182 l -3.063,0 0,-8.763 z m 1.956,23.226 c 2.867,0 5.043,-0.628 6.531,-1.883 C 9.937,8.117 10.682,6.29 10.682,3.892 10.682,2.784 10.438,1.808 9.953,0.959 9.466,0.11 8.756,-0.592 7.822,-1.145 c 1.316,-0.393 2.355,-1.15 3.117,-2.268 0.763,-1.121 1.145,-2.456 1.145,-4.004 0,-1.253 -0.234,-2.433 -0.702,-3.533 -0.467,-1.101 -1.112,-2.015 -1.937,-2.74 -0.811,-0.687 -1.731,-1.181 -2.758,-1.475 -1.026,-0.295 -2.474,-0.443 -4.344,-0.443 l -6.198,0 0,26.861 5.773,0 z"
           inkscape:connector-curvature="0" />
      </g>
      <g
         transform="matrix(1.25,0,0,-1.25,184.16464,350.48995)"
         id="g3015">
        <path
           id="path3017"
           style="fill:#909294;fill-opacity:1;fill-rule:nonzero;stroke:none"
           d="m 0,0 c 0,-1.401 0.234,-2.729 0.701,-3.975 0.467,-1.247 1.138,-2.328 2.01,-3.237 0.923,-0.958 1.987,-1.705 3.192,-2.232 1.206,-0.53 2.435,-0.792 3.69,-0.792 2.78,0 5.104,0.987 6.973,2.959 1.871,1.975 2.805,4.424 2.805,7.352 0,1.242 -0.225,2.426 -0.674,3.552 -0.449,1.124 -1.104,2.16 -1.964,3.108 C 15.711,7.828 14.62,8.638 13.458,9.16 12.295,9.683 11.006,9.945 9.593,9.945 8.326,9.945 7.121,9.704 5.978,9.226 4.833,8.746 3.819,8.051 2.933,7.141 2.01,6.193 1.291,5.093 0.775,3.839 0.258,2.585 0,1.305 0,0 m -4.059,0.038 c 0,1.881 0.357,3.664 1.07,5.349 0.714,1.687 1.759,3.205 3.136,4.558 1.304,1.279 2.752,2.247 4.345,2.905 1.593,0.658 3.305,0.987 5.138,0.987 1.882,0 3.624,-0.329 5.23,-0.987 1.605,-0.658 3.072,-1.639 4.4,-2.943 1.365,-1.338 2.392,-2.842 3.08,-4.501 0.69,-1.661 1.034,-3.449 1.034,-5.368 0,-1.906 -0.295,-3.661 -0.885,-5.266 -0.591,-1.606 -1.477,-3.047 -2.657,-4.326 -1.39,-1.501 -2.943,-2.633 -4.659,-3.395 -1.715,-0.764 -3.575,-1.145 -5.58,-1.145 -2.017,0 -3.878,0.389 -5.581,1.164 -1.703,0.775 -3.231,1.925 -4.584,3.448 -1.144,1.267 -2.011,2.709 -2.601,4.326 -0.59,1.618 -0.886,3.35 -0.886,5.194"
           inkscape:connector-curvature="0" />
      </g>
      <g
         transform="matrix(1.25,0,0,-1.25,222.65152,367.4382)"
         id="g3019">
        <path
           id="path3021"
           style="fill:#909294;fill-opacity:1;fill-rule:nonzero;stroke:none"
           d="m 0,0 -3.891,0 0,26.861 3.891,0 0,-11.402 10.958,0 0,11.402 3.893,0 0,-26.861 -3.893,0 0,11.641 L 0,11.641 0,0 z"
           inkscape:connector-curvature="0" />
      </g>
      <g
         transform="matrix(1.25,0,0,-1.25,264.50576,367.4382)"
         id="g3023">
        <path
           id="path3025"
           style="fill:#909294;fill-opacity:1;fill-rule:nonzero;stroke:none"
           d="m 0,0 -13.946,0 0,26.861 13.946,0 0,-3.579 -10.053,0 0,-8.024 10.053,0 0,-3.505 -10.053,0 0,-8.043 L 0,3.71 0,0 z"
           inkscape:connector-curvature="0" />
      </g>
      <g
         transform="matrix(1.25,0,0,-1.25,275.32301,351.29433)"
         id="g3027">
        <path
           id="path3029"
           style="fill:#909294;fill-opacity:1;fill-rule:nonzero;stroke:none"
           d="M 0,0 1.99,0 C 4.685,0 6.689,0.437 8.006,1.308 9.32,2.182 9.979,3.511 9.979,5.293 9.979,7.028 9.414,8.301 8.282,9.113 7.15,9.924 5.362,10.33 2.913,10.33 L 0,10.33 0,0 z m 0,-12.915 -3.894,0 0,26.861 7.748,0 c 3.224,0 5.683,-0.745 7.38,-2.232 1.697,-1.488 2.545,-3.64 2.545,-6.459 0,-2.187 -0.71,-4.018 -2.131,-5.486 -1.42,-1.471 -3.249,-2.26 -5.487,-2.372 l 7.618,-10.312 -4.871,0 L 0,-0.443 0,-12.915 z"
           inkscape:connector-curvature="0" />
      </g>
      <g
         transform="matrix(1.25,0,0,-1.25,301.63352,362.94233)"
         id="g3031">
        <path
           id="path3033"
           style="fill:#909294;fill-opacity:1;fill-rule:nonzero;stroke:none"
           d="m 0,0 4.722,0 c 2.99,0 5.353,0.872 7.094,2.611 1.74,1.742 2.61,4.105 2.61,7.094 0,3.1 -0.922,5.521 -2.766,7.269 -1.845,1.745 -4.397,2.62 -7.658,2.62 L 0,19.594 0,0 z m 3.763,-3.597 -7.545,0 0,26.862 8.651,0 c 4.034,0 7.291,-1.25 9.769,-3.744 2.478,-2.5 3.718,-5.758 3.718,-9.78 0,-2.287 -0.465,-4.37 -1.394,-6.254 C 16.035,1.605 14.696,0.039 12.951,-1.216 11.77,-2.065 10.509,-2.674 9.17,-3.043 7.828,-3.413 6.028,-3.597 3.763,-3.597"
           inkscape:connector-curvature="0" />
      </g>
      <path
         id="path3035"
         style="fill:#909294;fill-opacity:1;fill-rule:nonzero;stroke:none"
         d="m 333.91814,367.4387 -4.86625,0 0,-33.57625 4.86625,0 0,33.57625 z"
         inkscape:connector-curvature="0" />
      <g
         transform="matrix(1.25,0,0,-1.25,384.23664,367.4382)"
         id="g3037">
        <path
           id="path3039"
           style="fill:#2e9cd6;fill-opacity:1;fill-rule:nonzero;stroke:none"
           d="m 0,0 -13.946,0 0,26.861 13.946,0 0,-3.579 -10.056,0 0,-8.024 10.056,0 0,-3.505 -10.056,0 0,-8.043 L 0,3.71 0,0 z"
           inkscape:connector-curvature="0" />
      </g>
      <g
         transform="matrix(1.25,0,0,-1.25,406.05302,367.4382)"
         id="g3041">
        <path
           id="path3043"
           style="fill:#2e9cd6;fill-opacity:1;fill-rule:nonzero;stroke:none"
           d="m 0,0 -12.694,0 0,26.861 3.893,0 0,-23.151 L 0,3.71 0,0 z"
           inkscape:connector-curvature="0" />
      </g>
      <g
         transform="matrix(1.25,0,0,-1.25,427.40439,367.4382)"
         id="g3045">
        <path
           id="path3047"
           style="fill:#2e9cd6;fill-opacity:1;fill-rule:nonzero;stroke:none"
           d="m 0,0 -13.945,0 0,26.861 13.945,0 0,-3.579 -10.055,0 0,-8.024 10.055,0 0,-3.505 -10.055,0 0,-8.043 L 0,3.71 0,0 z"
           inkscape:connector-curvature="0" />
      </g>
      <g
         transform="matrix(1.25,0,0,-1.25,463.90951,359.01895)"
         id="g3049">
        <path
           id="path3051"
           style="fill:#2e9cd6;fill-opacity:1;fill-rule:nonzero;stroke:none"
           d="m 0,0 c -1.167,-2.351 -2.782,-4.149 -4.844,-5.396 -2.058,-1.25 -4.449,-1.875 -7.166,-1.875 -2.017,0 -3.878,0.389 -5.58,1.165 -1.704,0.774 -3.231,1.924 -4.585,3.447 -1.145,1.267 -2.012,2.709 -2.601,4.326 -0.589,1.618 -0.885,3.351 -0.885,5.194 0,1.869 0.356,3.643 1.068,5.322 0.713,1.677 1.761,3.21 3.137,4.586 1.304,1.278 2.752,2.247 4.344,2.904 1.592,0.658 3.307,0.987 5.138,0.987 2.754,0 5.174,-0.652 7.26,-1.954 2.085,-1.305 3.656,-3.148 4.714,-5.535 l -4.575,0 c -0.86,1.192 -1.92,2.09 -3.173,2.692 -1.255,0.604 -2.676,0.906 -4.262,0.906 -1.267,0 -2.473,-0.242 -3.614,-0.72 -1.147,-0.48 -2.161,-1.175 -3.048,-2.085 -0.92,-0.947 -1.641,-2.048 -2.155,-3.302 -0.518,-1.254 -0.776,-2.534 -0.776,-3.839 0,-1.401 0.234,-2.728 0.703,-3.974 0.466,-1.247 1.135,-2.328 2.008,-3.238 0.922,-0.958 1.988,-1.705 3.193,-2.232 1.205,-0.529 2.434,-0.792 3.689,-0.792 1.538,0 2.925,0.289 4.16,0.875 1.236,0.584 2.255,1.43 3.052,2.538 L 0,0 z"
           inkscape:connector-curvature="0" />
      </g>
      <g
         transform="matrix(1.25,0,0,-1.25,477.44589,367.4382)"
         id="g3053">
        <path
           id="path3055"
           style="fill:#2e9cd6;fill-opacity:1;fill-rule:nonzero;stroke:none"
           d="m 0,0 -3.892,0 0,23.245 -5.019,0 0,3.616 13.929,0 0,-3.616 L 0,23.245 0,0 z"
           inkscape:connector-curvature="0" />
      </g>
      <g
         transform="matrix(1.25,0,0,-1.25,491.85864,351.29433)"
         id="g3057">
        <path
           id="path3059"
           style="fill:#2e9cd6;fill-opacity:1;fill-rule:nonzero;stroke:none"
           d="M 0,0 1.992,0 C 4.687,0 6.69,0.437 8.006,1.308 9.321,2.182 9.98,3.511 9.98,5.293 9.98,7.028 9.414,8.301 8.282,9.113 7.15,9.924 5.36,10.33 2.915,10.33 L 0,10.33 0,0 z m 0,-12.915 -3.894,0 0,26.861 7.75,0 c 3.221,0 5.682,-0.745 7.379,-2.232 1.696,-1.488 2.545,-3.64 2.545,-6.459 0,-2.187 -0.711,-4.018 -2.133,-5.486 -1.416,-1.471 -3.248,-2.26 -5.486,-2.372 l 7.619,-10.312 -4.869,0 L 0,-0.443 0,-12.915 z"
           inkscape:connector-curvature="0" />
      </g>
      <g
         transform="matrix(1.25,0,0,-1.25,517.22364,350.48995)"
         id="g3061">
        <path
           id="path3063"
           style="fill:#2e9cd6;fill-opacity:1;fill-rule:nonzero;stroke:none"
           d="m 0,0 c 0,-1.401 0.231,-2.729 0.7,-3.975 0.469,-1.247 1.139,-2.328 2.011,-3.237 0.923,-0.958 1.987,-1.705 3.193,-2.232 1.205,-0.53 2.437,-0.792 3.689,-0.792 2.78,0 5.104,0.987 6.975,2.959 1.869,1.975 2.804,4.424 2.804,7.352 0,1.242 -0.225,2.426 -0.677,3.552 -0.444,1.124 -1.101,2.16 -1.961,3.108 C 15.713,7.828 14.622,8.638 13.457,9.16 12.295,9.683 11.008,9.945 9.593,9.945 8.327,9.945 7.122,9.704 5.978,9.226 4.835,8.746 3.819,8.051 2.934,7.141 2.012,6.193 1.292,5.093 0.776,3.839 0.26,2.585 0,1.305 0,0 m -4.056,0.038 c 0,1.881 0.354,3.664 1.069,5.349 0.713,1.687 1.758,3.205 3.136,4.558 1.303,1.279 2.752,2.247 4.344,2.905 1.592,0.658 3.305,0.987 5.137,0.987 1.884,0 3.627,-0.329 5.231,-0.987 1.606,-0.658 3.07,-1.639 4.401,-2.943 1.362,-1.338 2.39,-2.842 3.08,-4.501 0.689,-1.661 1.032,-3.449 1.032,-5.368 0,-1.906 -0.294,-3.661 -0.883,-5.266 -0.593,-1.606 -1.477,-3.047 -2.659,-4.326 -1.39,-1.501 -2.942,-2.633 -4.657,-3.395 -1.718,-0.764 -3.577,-1.145 -5.582,-1.145 -2.017,0 -3.877,0.389 -5.579,1.164 -1.704,0.775 -3.234,1.925 -4.586,3.448 -1.143,1.267 -2.009,2.709 -2.601,4.326 -0.59,1.618 -0.883,3.35 -0.883,5.194"
           inkscape:connector-curvature="0" />
      </g>
      <g
         transform="matrix(1.25,0,0,-1.25,555.71127,367.4382)"
         id="g3065">
        <path
           id="path3067"
           style="fill:#2e9cd6;fill-opacity:1;fill-rule:nonzero;stroke:none"
           d="m 0,0 -3.893,0 0,26.861 4.005,0 13.192,-20.329 -0.187,20.329 3.837,0 L 16.954,0 13.228,0 -0.258,20.938 0,0 z"
           inkscape:connector-curvature="0" />
      </g>
      <path
         id="path3069"
         style="fill:#2e9cd6;fill-opacity:1;fill-rule:nonzero;stroke:none"
         d="m 587.62814,367.4387 -4.86875,0 0,-33.57625 4.86875,0 0,33.57625 z"
         inkscape:connector-curvature="0" />
      <g
         transform="matrix(1.25,0,0,-1.25,624.03764,359.01895)"
         id="g3071">
        <path
           id="path3073"
           style="fill:#2e9cd6;fill-opacity:1;fill-rule:nonzero;stroke:none"
           d="m 0,0 c -1.168,-2.351 -2.779,-4.149 -4.84,-5.396 -2.058,-1.25 -4.45,-1.875 -7.17,-1.875 -2.014,0 -3.877,0.389 -5.579,1.165 -1.704,0.774 -3.233,1.924 -4.584,3.447 -1.144,1.267 -2.013,2.709 -2.6,4.326 -0.59,1.618 -0.888,3.351 -0.888,5.194 0,1.869 0.358,3.643 1.071,5.322 0.713,1.677 1.759,3.21 3.137,4.586 1.303,1.278 2.75,2.247 4.346,2.904 1.591,0.658 3.302,0.987 5.136,0.987 2.754,0 5.174,-0.652 7.26,-1.954 2.082,-1.305 3.655,-3.148 4.711,-5.535 l -4.572,0 c -0.865,1.192 -1.918,2.09 -3.173,2.692 -1.255,0.604 -2.677,0.906 -4.265,0.906 -1.265,0 -2.469,-0.242 -3.613,-0.72 -1.145,-0.48 -2.16,-1.175 -3.044,-2.085 -0.924,-0.947 -1.642,-2.048 -2.16,-3.302 -0.516,-1.254 -0.773,-2.534 -0.773,-3.839 0,-1.401 0.233,-2.728 0.7,-3.974 0.466,-1.247 1.136,-2.328 2.011,-3.238 0.922,-0.958 1.985,-1.705 3.19,-2.232 1.206,-0.529 2.436,-0.792 3.689,-0.792 1.538,0 2.927,0.289 4.163,0.875 1.236,0.584 2.253,1.43 3.052,2.538 L 0,0 z"
           inkscape:connector-curvature="0" />
      </g>
      <g
         transform="matrix(1.25,0,0,-1.25,644.81764,352.9337)"
         id="g3075">
        <path
           id="path3077"
           style="fill:#2e9cd6;fill-opacity:1;fill-rule:nonzero;stroke:none"
           d="M 0,0 -3.782,10.203 -7.638,0 0,0 z m -9.021,-3.782 -3.028,-7.822 -4.11,0 10.495,26.862 3.782,0 10.496,-26.862 -4.261,0 -2.952,7.822 -10.422,0 z"
           inkscape:connector-curvature="0" />
      </g>
      <g
         transform="matrix(1.25,0,0,-1.25,99.820765,322.97408)"
         id="g3079">
        <path
           id="path3081"
           style="fill:#909294;fill-opacity:1;fill-rule:nonzero;stroke:none"
           d="m 0,0 c -0.634,-0.384 -1.973,-1.581 -2.083,-3.599 -0.172,-1.092 1.14,-3.631 2.717,-4.12 0.611,-0.225 2.196,-0.34 4.754,-0.34 6.54,0 10.954,-0.723 13.286,-2.216 1.335,-0.837 2.014,-2.061 2.014,-3.646 0,-1.605 -1.041,-2.692 -3.078,-3.28 -1.313,-0.407 -3.667,-0.657 -7.062,-0.816 -3.735,-0.157 -6.316,-0.384 -7.787,-0.679 -2.195,-0.429 -3.779,-1.177 -4.73,-2.217 -0.832,-0.903 -0.431,-2.727 -0.207,-3.506 0.066,-0.227 0.3,-0.567 0.401,-0.663 0.973,-0.935 2.487,-1.623 4.559,-2.032 1.448,-0.296 4.051,-0.523 7.786,-0.681 3.395,-0.136 5.749,-0.407 7.062,-0.792 2.037,-0.589 3.056,-1.697 3.079,-3.304 -0.023,-1.585 -0.679,-2.785 -2.015,-3.646 -2.331,-1.471 -6.768,-2.218 -13.286,-2.218 -2.558,0.024 -4.142,-0.091 -4.754,-0.316 -0.877,-0.325 -2.974,-2.003 -2.716,-4.142 0,-0.452 0.827,-2.689 2.082,-3.577 0.544,-0.34 1.178,-0.588 1.902,-0.793 l 26.143,0 c 1.019,0.432 1.743,1.064 2.196,1.903 l 0,21.819 -0.023,0 0,21.729 c -0.566,1.111 -1.63,1.834 -3.191,2.219 l -23.224,0 C 2.241,0.951 0.974,0.59 0,0"
           inkscape:connector-curvature="0" />
      </g>
      <g
         transform="matrix(1.25,0,0,-1.25,55.94689,389.83195)"
         id="g3083">
        <path
           id="path3085"
           style="fill:#909294;fill-opacity:1;fill-rule:nonzero;stroke:none"
           d="m 0,0 c -0.599,-0.214 -1.321,-0.459 -2.135,-0.723 -0.973,-0.363 -1.653,-0.703 -2.038,-1.063 -1.607,-1.403 -1.742,-2.673 -0.43,-3.78 9.258,-7.923 19.105,-12.541 29.585,-13.853 1.856,-0.251 3.711,-0.363 5.591,-0.387 l 0.044,0 c 1.857,0.024 3.713,0.136 5.569,0.387 10.457,1.312 20.325,5.93 29.584,13.853 1.312,1.107 1.176,2.377 -0.408,3.78 -0.407,0.36 -1.086,0.7 -2.06,1.063 -0.859,0.28 -3.946,1.196 -4.955,1.256 -0.024,0.005 -0.202,0.019 -0.271,0.02 -3.983,0.196 -13.15,0.216 -27.459,0.103 l -0.044,0 C 16.21,0.769 7.06,0.749 3.083,0.553 3.017,0.552 2.829,0.53 2.78,0.522 2.388,0.455 1.251,0.356 0.335,0.107 0.288,0.095 0.067,0.022 0,0"
           inkscape:connector-curvature="0" />
      </g>
    </g>
    <g
       id="g3811">
      <g
         transform="matrix(1.25,0,0,-1.25,54.276265,506.29795)"
         id="g3087">
        <path
           id="path3089"
           style="fill:#373535;fill-opacity:1;fill-rule:nonzero;stroke:none"
           d="m 0,0 c -1.562,-0.384 -2.625,-1.109 -3.191,-2.22 l 0,-21.728 -0.023,0 0,-21.819 c 0.43,-0.839 1.177,-1.472 2.195,-1.903 l 26.121,0 c 0.747,0.206 1.38,0.452 1.924,0.793 0.848,0.618 1.404,1.54 1.726,2.305 0.247,0.584 0.34,1.652 0.294,1.953 -0.104,0.682 -0.361,1.665 -0.93,2.415 -0.402,0.526 -0.957,0.937 -1.724,1.045 -0.61,0.227 -2.195,0.34 -4.753,0.315 -6.541,0 -10.955,0.748 -13.287,2.221 -1.335,0.859 -2.014,2.06 -2.014,3.644 0,1.607 1.041,2.715 3.078,3.305 1.313,0.384 3.667,0.654 7.062,0.792 3.734,0.158 6.338,0.385 7.787,0.679 1.93,0.385 3.382,1.019 4.372,1.87 0.097,0.085 0.246,0.247 0.364,0.394 0.088,0.112 0.258,0.552 0.298,0.751 0.182,0.918 0.307,2.523 -0.28,3.186 -0.952,1.041 -2.559,1.789 -4.732,2.219 -1.448,0.294 -4.051,0.52 -7.786,0.678 -3.395,0.158 -5.749,0.408 -7.063,0.816 -2.036,0.588 -3.078,1.675 -3.078,3.281 0,1.584 0.68,2.809 2.015,3.645 2.331,1.494 6.745,2.217 13.287,2.217 2.535,0 4.12,0.113 4.753,0.34 2.364,0.862 2.604,1.97 2.604,1.97 0.238,0.909 0.376,2.815 -0.182,3.985 -0.544,0.79 -1.132,1.378 -1.789,1.763 -0.972,0.59 -2.241,0.95 -3.802,1.088 L 0,0 z"
           inkscape:connector-curvature="0" />
      </g>
      <g
         transform="matrix(1.25,0,0,-1.25,135.19789,499.31558)"
         id="g3091">
        <path
           id="path3093"
           style="fill:#373535;fill-opacity:1;fill-rule:nonzero;stroke:none"
           d="m 0,0 c 0.852,0.331 1.457,0.645 1.831,0.977 1.585,1.425 1.721,2.696 0.408,3.803 -9.258,7.9 -19.126,12.518 -29.584,13.829 -1.856,0.25 -3.712,0.387 -5.568,0.387 l -0.045,0 c -1.879,0 -3.734,-0.137 -5.591,-0.387 -10.48,-1.311 -20.326,-5.929 -29.583,-13.829 -1.313,-1.107 -1.178,-2.378 0.429,-3.803 0.385,-0.361 1.064,-0.7 2.038,-1.063 2.234,-0.786 4.006,-1.089 4.712,-1.21 0.163,-0.025 0.67,-0.075 0.865,-0.084 4.154,-0.18 13.185,-0.194 27.13,-0.064 l 0.045,0 c 14.175,-0.132 23.303,-0.116 27.346,0.075 0.108,0.004 0.467,0.048 0.637,0.075 0.705,0.126 2.428,0.422 4.463,1.124 C -0.388,-0.145 -0.075,-0.027 0,0"
           inkscape:connector-curvature="0" />
      </g>
      <g
         transform="matrix(1.25,0,0,-1.25,160.98889,532.6127)"
         id="g3095">
        <path
           id="path3097"
           style="fill:#373535;fill-opacity:1;fill-rule:nonzero;stroke:none"
           d="M 0,0 1.236,0 C 3.24,0 4.67,0.305 5.525,0.914 6.379,1.521 6.807,2.527 6.807,3.93 6.807,5.172 6.42,6.092 5.646,6.688 4.87,7.284 3.683,7.584 2.084,7.584 L 0,7.584 0,0 z m -0.038,-11.973 3.063,0 c 1.796,0 3.119,0.335 3.967,1.007 0.848,0.669 1.272,1.704 1.272,3.106 0,1.527 -0.442,2.683 -1.328,3.471 -0.885,0.786 -2.189,1.18 -3.911,1.18 l -3.063,0 0,-8.764 z m 1.956,23.227 c 2.866,0 5.043,-0.628 6.531,-1.883 C 9.937,8.118 10.682,6.29 10.682,3.893 10.682,2.787 10.439,1.809 9.953,0.96 9.467,0.11 8.756,-0.589 7.822,-1.145 c 1.316,-0.392 2.355,-1.149 3.118,-2.267 0.762,-1.119 1.143,-2.454 1.143,-4.005 0,-1.253 -0.233,-2.43 -0.701,-3.532 -0.467,-1.102 -1.112,-2.013 -1.937,-2.74 -0.811,-0.688 -1.731,-1.18 -2.757,-1.476 -1.027,-0.294 -2.476,-0.443 -4.345,-0.443 l -6.199,0 0,26.862 5.774,0 z"
           inkscape:connector-curvature="0" />
      </g>
      <g
         transform="matrix(1.25,0,0,-1.25,184.00352,535.17133)"
         id="g3099">
        <path
           id="path3101"
           style="fill:#373535;fill-opacity:1;fill-rule:nonzero;stroke:none"
           d="m 0,0 c 0,-1.404 0.234,-2.729 0.7,-3.977 0.468,-1.247 1.138,-2.329 2.01,-3.238 0.924,-0.957 1.987,-1.702 3.193,-2.231 1.205,-0.53 2.434,-0.793 3.689,-0.793 2.78,0 5.105,0.987 6.974,2.962 1.869,1.973 2.805,4.423 2.805,7.35 0,1.244 -0.225,2.426 -0.674,3.551 -0.45,1.126 -1.103,2.162 -1.964,3.11 C 15.711,7.827 14.62,8.638 13.458,9.158 12.295,9.681 11.007,9.942 9.592,9.942 8.326,9.942 7.121,9.702 5.977,9.226 4.833,8.743 3.818,8.05 2.933,7.141 2.01,6.192 1.291,5.091 0.774,3.836 0.258,2.583 0,1.302 0,0 m -4.059,0.036 c 0,1.882 0.356,3.666 1.07,5.349 0.714,1.686 1.758,3.205 3.136,4.557 1.303,1.282 2.751,2.248 4.344,2.906 1.593,0.659 3.306,0.989 5.139,0.989 1.881,0 3.624,-0.33 5.229,-0.989 1.606,-0.658 3.072,-1.64 4.401,-2.943 1.365,-1.339 2.392,-2.842 3.08,-4.501 0.689,-1.659 1.033,-3.45 1.033,-5.368 0,-1.907 -0.294,-3.661 -0.885,-5.265 -0.591,-1.606 -1.476,-3.048 -2.657,-4.328 -1.389,-1.501 -2.942,-2.632 -4.658,-3.395 -1.715,-0.763 -3.576,-1.143 -5.581,-1.143 -2.016,0 -3.877,0.389 -5.58,1.162 -1.703,0.776 -3.231,1.925 -4.584,3.45 -1.144,1.266 -2.011,2.709 -2.602,4.327 -0.59,1.618 -0.885,3.347 -0.885,5.192"
           inkscape:connector-curvature="0" />
      </g>
      <g
         transform="matrix(1.25,0,0,-1.25,222.49101,552.1232)"
         id="g3103">
        <path
           id="path3105"
           style="fill:#373535;fill-opacity:1;fill-rule:nonzero;stroke:none"
           d="m 0,0 -3.893,0 0,26.862 3.893,0 0,-11.4 10.957,0 0,11.4 3.893,0 0,-26.862 -3.893,0 0,11.643 L 0,11.643 0,0 z"
           inkscape:connector-curvature="0" />
      </g>
      <g
         transform="matrix(1.25,0,0,-1.25,264.34464,552.1232)"
         id="g3107">
        <path
           id="path3109"
           style="fill:#373535;fill-opacity:1;fill-rule:nonzero;stroke:none"
           d="m 0,0 -13.947,0 0,26.862 13.947,0 0,-3.579 -10.054,0 0,-8.024 10.054,0 0,-3.506 -10.054,0 0,-8.042 L 0,3.711 0,0 z"
           inkscape:connector-curvature="0" />
      </g>
      <g
         transform="matrix(1.25,0,0,-1.25,275.16064,535.97695)"
         id="g3111">
        <path
           id="path3113"
           style="fill:#373535;fill-opacity:1;fill-rule:nonzero;stroke:none"
           d="M 0,0 1.992,0 C 4.686,0 6.689,0.435 8.007,1.308 9.321,2.182 9.979,3.511 9.979,5.293 9.979,7.027 9.414,8.3 8.283,9.111 7.152,9.924 5.362,10.33 2.915,10.33 L 0,10.33 0,0 z m 0,-12.917 -3.892,0 0,26.862 7.748,0 c 3.222,0 5.683,-0.745 7.378,-2.233 1.697,-1.488 2.546,-3.64 2.546,-6.456 0,-2.189 -0.711,-4.02 -2.132,-5.488 -1.419,-1.469 -3.249,-2.26 -5.486,-2.372 l 7.618,-10.313 -4.87,0 L 0,-0.442 0,-12.917 z"
           inkscape:connector-curvature="0" />
      </g>
      <g
         transform="matrix(1.25,0,0,-1.25,301.47239,547.62733)"
         id="g3115">
        <path
           id="path3117"
           style="fill:#373535;fill-opacity:1;fill-rule:nonzero;stroke:none"
           d="m 0,0 4.723,0 c 2.988,0 5.352,0.873 7.093,2.611 1.74,1.742 2.61,4.105 2.61,7.096 0,3.098 -0.922,5.522 -2.767,7.267 -1.845,1.748 -4.398,2.622 -7.657,2.622 L 0,19.596 0,0 z m 3.763,-3.597 -7.545,0 0,26.863 8.651,0 c 4.034,0 7.289,-1.248 9.768,-3.745 2.478,-2.498 3.717,-5.757 3.717,-9.777 0,-2.287 -0.463,-4.372 -1.392,-6.256 C 16.034,1.607 14.695,0.039 12.95,-1.214 11.77,-2.063 10.508,-2.672 9.168,-3.041 7.828,-3.413 6.026,-3.597 3.763,-3.597"
           inkscape:connector-curvature="0" />
      </g>
      <path
         id="path3119"
         style="fill:#373535;fill-opacity:1;fill-rule:nonzero;stroke:none"
         d="m 333.75564,552.1237 -4.86375,0 0,-33.5775 4.86375,0 0,33.5775 z"
         inkscape:connector-curvature="0" />
      <g
         transform="matrix(1.25,0,0,-1.25,384.07301,552.1232)"
         id="g3121">
        <path
           id="path3123"
           style="fill:#373535;fill-opacity:1;fill-rule:nonzero;stroke:none"
           d="m 0,0 -13.946,0 0,26.862 13.946,0 0,-3.579 -10.054,0 0,-8.024 10.054,0 0,-3.506 -10.054,0 0,-8.042 L 0,3.711 0,0 z"
           inkscape:connector-curvature="0" />
      </g>
      <g
         transform="matrix(1.25,0,0,-1.25,405.88951,552.1232)"
         id="g3125">
        <path
           id="path3127"
           style="fill:#373535;fill-opacity:1;fill-rule:nonzero;stroke:none"
           d="m 0,0 -12.693,0 0,26.862 3.894,0 0,-23.151 L 0,3.711 0,0 z"
           inkscape:connector-curvature="0" />
      </g>
      <g
         transform="matrix(1.25,0,0,-1.25,427.24201,552.1232)"
         id="g3129">
        <path
           id="path3131"
           style="fill:#373535;fill-opacity:1;fill-rule:nonzero;stroke:none"
           d="m 0,0 -13.946,0 0,26.862 13.946,0 0,-3.579 -10.055,0 0,-8.024 10.055,0 0,-3.506 -10.055,0 0,-8.042 L 0,3.711 0,0 z"
           inkscape:connector-curvature="0" />
      </g>
      <g
         transform="matrix(1.25,0,0,-1.25,463.74589,543.70395)"
         id="g3133">
        <path
           id="path3135"
           style="fill:#373535;fill-opacity:1;fill-rule:nonzero;stroke:none"
           d="m 0,0 c -1.168,-2.35 -2.783,-4.149 -4.844,-5.396 -2.058,-1.249 -4.45,-1.873 -7.166,-1.873 -2.018,0 -3.879,0.389 -5.581,1.163 -1.703,0.775 -3.231,1.924 -4.585,3.449 -1.142,1.266 -2.009,2.709 -2.598,4.327 -0.59,1.618 -0.886,3.348 -0.886,5.192 0,1.869 0.356,3.645 1.069,5.323 0.712,1.678 1.76,3.208 3.136,4.584 1.303,1.281 2.751,2.248 4.344,2.905 1.592,0.659 3.305,0.989 5.137,0.989 2.755,0 5.175,-0.652 7.261,-1.957 2.084,-1.303 3.655,-3.147 4.713,-5.534 l -4.574,0 c -0.862,1.192 -1.92,2.091 -3.173,2.693 -1.255,0.603 -2.677,0.904 -4.263,0.904 -1.266,0 -2.472,-0.241 -3.615,-0.717 -1.145,-0.483 -2.16,-1.176 -3.046,-2.085 -0.922,-0.948 -1.642,-2.05 -2.156,-3.305 -0.518,-1.253 -0.775,-2.534 -0.775,-3.836 0,-1.404 0.233,-2.728 0.701,-3.976 0.468,-1.247 1.137,-2.329 2.01,-3.239 0.92,-0.957 1.987,-1.702 3.193,-2.231 1.203,-0.529 2.433,-0.793 3.688,-0.793 1.538,0 2.926,0.292 4.161,0.877 1.235,0.584 2.253,1.428 3.052,2.536 L 0,0 z"
           inkscape:connector-curvature="0" />
      </g>
      <g
         transform="matrix(1.25,0,0,-1.25,477.28226,552.1232)"
         id="g3137">
        <path
           id="path3139"
           style="fill:#373535;fill-opacity:1;fill-rule:nonzero;stroke:none"
           d="m 0,0 -3.892,0 0,23.247 -5.018,0 0,3.615 13.928,0 0,-3.615 L 0,23.247 0,0 z"
           inkscape:connector-curvature="0" />
      </g>
      <g
         transform="matrix(1.25,0,0,-1.25,491.69514,535.97695)"
         id="g3141">
        <path
           id="path3143"
           style="fill:#373535;fill-opacity:1;fill-rule:nonzero;stroke:none"
           d="M 0,0 1.991,0 C 4.686,0 6.689,0.435 8.008,1.308 9.323,2.182 9.979,3.511 9.979,5.293 9.979,7.027 9.413,8.3 8.281,9.111 7.149,9.924 5.361,10.33 2.916,10.33 L 0,10.33 0,0 z m 0,-12.917 -3.894,0 0,26.862 7.749,0 c 3.223,0 5.682,-0.745 7.379,-2.233 1.696,-1.488 2.545,-3.64 2.545,-6.456 0,-2.189 -0.709,-4.02 -2.13,-5.488 C 10.23,-1.701 8.4,-2.492 6.16,-2.604 l 7.619,-10.313 -4.869,0 L 0,-0.442 0,-12.917 z"
           inkscape:connector-curvature="0" />
      </g>
      <g
         transform="matrix(1.25,0,0,-1.25,517.06014,535.17133)"
         id="g3145">
        <path
           id="path3147"
           style="fill:#373535;fill-opacity:1;fill-rule:nonzero;stroke:none"
           d="M 0,0 C 0,-1.404 0.232,-2.729 0.701,-3.977 1.17,-5.224 1.84,-6.306 2.71,-7.215 c 0.925,-0.957 1.987,-1.702 3.195,-2.231 1.203,-0.53 2.435,-0.793 3.687,-0.793 2.782,0 5.106,0.987 6.975,2.962 1.871,1.973 2.806,4.423 2.806,7.35 0,1.244 -0.225,2.426 -0.676,3.551 C 18.25,4.75 17.593,5.786 16.733,6.734 15.712,7.827 14.621,8.638 13.459,9.158 12.295,9.681 11.007,9.942 9.592,9.942 8.329,9.942 7.121,9.702 5.979,9.226 4.834,8.743 3.82,8.05 2.933,7.141 2.011,6.192 1.293,5.091 0.775,3.836 0.261,2.583 0,1.302 0,0 m -4.057,0.036 c 0,1.882 0.357,3.666 1.069,5.349 0.713,1.686 1.759,3.205 3.136,4.557 1.305,1.282 2.752,2.248 4.344,2.906 1.595,0.659 3.308,0.989 5.137,0.989 1.884,0 3.627,-0.33 5.233,-0.989 1.604,-0.658 3.071,-1.64 4.399,-2.943 1.365,-1.339 2.393,-2.842 3.082,-4.501 0.689,-1.659 1.032,-3.45 1.032,-5.368 0,-1.907 -0.296,-3.661 -0.885,-5.265 -0.59,-1.606 -1.477,-3.048 -2.657,-4.328 -1.391,-1.501 -2.944,-2.632 -4.659,-3.395 -1.715,-0.763 -3.575,-1.143 -5.582,-1.143 -2.015,0 -3.875,0.389 -5.579,1.162 -1.704,0.776 -3.232,1.925 -4.583,3.45 -1.146,1.266 -2.012,2.709 -2.604,4.327 -0.587,1.618 -0.883,3.347 -0.883,5.192"
           inkscape:connector-curvature="0" />
      </g>
      <g
         transform="matrix(1.25,0,0,-1.25,555.54889,552.1232)"
         id="g3149">
        <path
           id="path3151"
           style="fill:#373535;fill-opacity:1;fill-rule:nonzero;stroke:none"
           d="m 0,0 -3.895,0 0,26.862 4.005,0 13.192,-20.33 -0.187,20.33 3.839,0 L 16.954,0 13.228,0 -0.257,20.939 0,0 z"
           inkscape:connector-curvature="0" />
      </g>
      <path
         id="path3153"
         style="fill:#373535;fill-opacity:1;fill-rule:nonzero;stroke:none"
         d="m 587.46314,552.1237 -4.86625,0 0,-33.5775 4.86625,0 0,33.5775 z"
         inkscape:connector-curvature="0" />
      <g
         transform="matrix(1.25,0,0,-1.25,623.87651,543.70395)"
         id="g3155">
        <path
           id="path3157"
           style="fill:#373535;fill-opacity:1;fill-rule:nonzero;stroke:none"
           d="m 0,0 c -1.169,-2.35 -2.782,-4.149 -4.843,-5.396 -2.058,-1.249 -4.45,-1.873 -7.167,-1.873 -2.017,0 -3.878,0.389 -5.58,1.163 -1.704,0.775 -3.233,1.924 -4.586,3.449 -1.142,1.266 -2.011,2.709 -2.6,4.327 -0.589,1.618 -0.885,3.348 -0.885,5.192 0,1.869 0.356,3.645 1.068,5.323 0.716,1.678 1.761,3.208 3.139,4.584 1.301,1.281 2.75,2.248 4.344,2.905 1.592,0.659 3.305,0.989 5.136,0.989 2.757,0 5.174,-0.652 7.26,-1.957 2.085,-1.303 3.655,-3.147 4.714,-5.534 l -4.575,0 c -0.863,1.192 -1.918,2.091 -3.173,2.693 -1.255,0.603 -2.677,0.904 -4.262,0.904 -1.268,0 -2.471,-0.241 -3.614,-0.717 -1.147,-0.483 -2.162,-1.176 -3.046,-2.085 -0.922,-0.948 -1.642,-2.05 -2.157,-3.305 -0.519,-1.253 -0.776,-2.534 -0.776,-3.836 0,-1.404 0.236,-2.728 0.7,-3.976 0.466,-1.247 1.136,-2.329 2.011,-3.239 0.922,-0.957 1.988,-1.702 3.191,-2.231 1.207,-0.529 2.438,-0.793 3.691,-0.793 1.537,0 2.924,0.292 4.16,0.877 1.236,0.584 2.255,1.428 3.052,2.536 L 0,0 z"
           inkscape:connector-curvature="0" />
      </g>
      <g
         transform="matrix(1.25,0,0,-1.25,644.65289,537.61758)"
         id="g3159">
        <path
           id="path3161"
           style="fill:#373535;fill-opacity:1;fill-rule:nonzero;stroke:none"
           d="M 0,0 -3.782,10.204 -7.636,0 0,0 z m -9.021,-3.782 -3.026,-7.822 -4.112,0 10.496,26.862 3.782,0 10.497,-26.862 -4.262,0 -2.95,7.822 -10.425,0 z"
           inkscape:connector-curvature="0" />
      </g>
      <g
         transform="matrix(1.25,0,0,-1.25,99.659015,507.65783)"
         id="g3163">
        <path
           id="path3165"
           style="fill:#373535;fill-opacity:1;fill-rule:nonzero;stroke:none"
           d="m 0,0 c -0.634,-0.385 -1.974,-1.581 -2.082,-3.599 -0.172,-1.093 1.139,-3.631 2.716,-4.119 0.612,-0.227 2.195,-0.34 4.753,-0.34 6.541,0 10.955,-0.723 13.287,-2.217 1.335,-0.836 2.014,-2.061 2.014,-3.645 0,-1.606 -1.041,-2.693 -3.078,-3.281 -1.313,-0.408 -3.667,-0.658 -7.062,-0.817 -3.735,-0.157 -6.315,-0.383 -7.787,-0.677 -2.195,-0.43 -3.78,-1.178 -4.73,-2.219 -0.832,-0.902 -0.431,-2.726 -0.208,-3.503 0.066,-0.229 0.301,-0.568 0.402,-0.663 0.973,-0.936 2.487,-1.625 4.559,-2.035 1.449,-0.294 4.051,-0.521 7.786,-0.679 3.396,-0.138 5.75,-0.408 7.062,-0.792 2.037,-0.59 3.056,-1.698 3.079,-3.306 -0.023,-1.583 -0.679,-2.784 -2.015,-3.643 -2.331,-1.473 -6.768,-2.221 -13.287,-2.221 -2.557,0.025 -4.141,-0.088 -4.753,-0.315 -0.877,-0.324 -2.974,-2.002 -2.716,-4.141 0,-0.453 0.827,-2.689 2.083,-3.577 0.543,-0.341 1.177,-0.587 1.901,-0.793 l 26.143,0 c 1.019,0.431 1.743,1.063 2.195,1.903 l 0,21.819 -0.022,0 0,21.728 c -0.565,1.111 -1.63,1.836 -3.191,2.22 l -23.224,0 C 2.241,0.95 0.974,0.59 0,0"
           inkscape:connector-curvature="0" />
      </g>
      <g
         transform="matrix(1.25,0,0,-1.25,55.78564,574.51695)"
         id="g3167">
        <path
           id="path3169"
           style="fill:#373535;fill-opacity:1;fill-rule:nonzero;stroke:none"
           d="m 0,0 c -0.599,-0.212 -1.321,-0.458 -2.135,-0.722 -0.974,-0.362 -1.653,-0.701 -2.038,-1.064 -1.607,-1.402 -1.743,-2.67 -0.43,-3.78 9.258,-7.923 19.104,-12.539 29.584,-13.853 1.856,-0.248 3.712,-0.362 5.591,-0.384 l 0.045,0 c 1.856,0.022 3.712,0.136 5.568,0.384 10.458,1.314 20.326,5.93 29.584,13.853 1.313,1.11 1.177,2.378 -0.408,3.78 -0.407,0.363 -1.086,0.702 -2.059,1.064 -0.859,0.28 -3.947,1.198 -4.955,1.258 C 58.322,0.54 58.145,0.553 58.076,0.556 54.093,0.75 44.925,0.77 30.617,0.659 l -0.045,0 C 16.209,0.77 7.06,0.75 3.082,0.556 3.017,0.553 2.828,0.531 2.78,0.522 2.388,0.458 1.251,0.358 0.334,0.11 0.288,0.095 0.066,0.023 0,0"
           inkscape:connector-curvature="0" />
      </g>
    </g>
    <g
       id="g3855">
      <g
         transform="matrix(1.25,0,0,-1.25,49.77189,680.8622)"
         id="g3171">
        <path
           id="path3173"
           style="fill:#aaacae;fill-opacity:1;fill-rule:nonzero;stroke:none"
           d="m 0,0 c -1.562,-0.385 -2.626,-1.108 -3.191,-2.221 l 0,-21.727 -0.023,0 0,-21.819 c 0.43,-0.84 1.177,-1.471 2.195,-1.903 l 26.121,0 c 0.747,0.205 1.38,0.453 1.924,0.793 0.848,0.617 1.404,1.54 1.726,2.305 0.246,0.583 0.34,1.652 0.294,1.952 -0.104,0.682 -0.361,1.666 -0.93,2.415 -0.402,0.527 -0.957,0.937 -1.724,1.046 -0.61,0.226 -2.195,0.339 -4.753,0.315 -6.541,0 -10.955,0.747 -13.287,2.22 -1.335,0.86 -2.015,2.061 -2.015,3.645 0,1.607 1.042,2.714 3.079,3.304 1.313,0.385 3.667,0.656 7.062,0.793 3.734,0.157 6.338,0.385 7.787,0.678 1.93,0.385 3.382,1.019 4.372,1.871 0.097,0.084 0.246,0.246 0.364,0.393 0.088,0.112 0.258,0.553 0.298,0.752 0.182,0.917 0.307,2.523 -0.281,3.188 -0.951,1.039 -2.558,1.786 -4.731,2.216 -1.448,0.294 -4.051,0.52 -7.786,0.679 -3.395,0.159 -5.75,0.408 -7.063,0.816 -2.036,0.587 -3.078,1.674 -3.078,3.281 0,1.583 0.68,2.808 2.015,3.646 2.331,1.493 6.745,2.216 13.286,2.216 2.536,0 4.121,0.113 4.754,0.339 2.364,0.863 2.603,1.97 2.603,1.97 0.24,0.909 0.378,2.815 -0.181,3.985 -0.544,0.793 -1.132,1.378 -1.789,1.763 -0.973,0.59 -2.241,0.95 -3.802,1.089 L 0,0 z"
           inkscape:connector-curvature="0" />
      </g>
      <g
         transform="matrix(1.25,0,0,-1.25,130.69351,673.87983)"
         id="g3175">
        <path
           id="path3177"
           style="fill:#aaacae;fill-opacity:1;fill-rule:nonzero;stroke:none"
           d="m 0,0 c 0.852,0.33 1.457,0.646 1.831,0.977 1.585,1.427 1.721,2.695 0.408,3.803 -9.258,7.899 -19.126,12.517 -29.583,13.828 -1.857,0.251 -3.713,0.387 -5.569,0.387 l -0.045,0 c -1.879,0 -3.734,-0.136 -5.591,-0.387 -10.479,-1.311 -20.326,-5.929 -29.583,-13.828 -1.313,-1.108 -1.178,-2.376 0.429,-3.803 0.385,-0.362 1.064,-0.701 2.038,-1.064 2.234,-0.786 4.005,-1.086 4.712,-1.209 0.163,-0.026 0.67,-0.076 0.865,-0.085 4.154,-0.177 13.185,-0.194 27.13,-0.064 l 0.045,0 c 14.175,-0.132 23.303,-0.113 27.346,0.075 0.108,0.005 0.467,0.048 0.636,0.076 0.706,0.125 2.428,0.423 4.464,1.123 C -0.388,-0.143 -0.075,-0.028 0,0"
           inkscape:connector-curvature="0" />
      </g>
      <g
         transform="matrix(1.25,0,0,-1.25,156.48451,707.17445)"
         id="g3179">
        <path
           id="path3181"
           style="fill:#737577;fill-opacity:1;fill-rule:nonzero;stroke:none"
           d="M 0,0 1.236,0 C 3.24,0 4.67,0.305 5.525,0.912 6.379,1.519 6.807,2.527 6.807,3.927 6.807,5.169 6.419,6.089 5.646,6.686 4.87,7.281 3.683,7.582 2.084,7.582 L 0,7.582 0,0 z m -0.038,-11.973 3.063,0 c 1.796,0 3.119,0.332 3.966,1.004 0.849,0.67 1.273,1.707 1.273,3.107 0,1.527 -0.442,2.682 -1.328,3.47 -0.885,0.787 -2.189,1.18 -3.911,1.18 l -3.063,0 0,-8.761 z m 1.956,23.225 c 2.866,0 5.043,-0.629 6.531,-1.884 C 9.937,8.115 10.681,6.29 10.681,3.891 10.681,2.784 10.438,1.806 9.953,0.957 9.467,0.108 8.756,-0.592 7.822,-1.146 c 1.316,-0.392 2.354,-1.15 3.117,-2.269 0.764,-1.119 1.144,-2.454 1.144,-4.005 0,-1.253 -0.234,-2.43 -0.701,-3.531 -0.467,-1.102 -1.112,-2.014 -1.937,-2.739 -0.812,-0.687 -1.731,-1.182 -2.758,-1.476 -1.026,-0.296 -2.475,-0.444 -4.344,-0.444 l -6.199,0 0,26.862 5.774,0 z"
           inkscape:connector-curvature="0" />
      </g>
      <g
         transform="matrix(1.25,0,0,-1.25,179.49914,709.7367)"
         id="g3183">
        <path
           id="path3185"
           style="fill:#737577;fill-opacity:1;fill-rule:nonzero;stroke:none"
           d="m 0,0 c 0,-1.404 0.233,-2.729 0.7,-3.977 0.467,-1.246 1.138,-2.326 2.011,-3.235 0.923,-0.96 1.986,-1.705 3.192,-2.234 1.205,-0.529 2.435,-0.792 3.689,-0.792 2.78,0 5.105,0.987 6.974,2.961 1.87,1.974 2.805,4.423 2.805,7.35 0,1.244 -0.225,2.426 -0.675,3.554 C 18.248,4.75 17.593,5.787 16.732,6.735 15.711,7.828 14.62,8.638 13.458,9.158 12.295,9.682 11.006,9.942 9.592,9.942 8.326,9.942 7.121,9.703 5.977,9.226 4.833,8.744 3.818,8.051 2.933,7.141 2.01,6.192 1.291,5.091 0.774,3.836 0.257,2.583 0,1.303 0,0 m -4.06,0.037 c 0,1.881 0.357,3.665 1.071,5.35 0.713,1.685 1.758,3.204 3.136,4.555 1.303,1.282 2.751,2.249 4.344,2.908 1.593,0.657 3.305,0.987 5.139,0.987 1.882,0 3.624,-0.33 5.229,-0.987 1.606,-0.659 3.073,-1.639 4.4,-2.944 1.366,-1.34 2.393,-2.841 3.081,-4.5 0.69,-1.661 1.033,-3.451 1.033,-5.369 0,-1.907 -0.294,-3.662 -0.885,-5.266 -0.59,-1.605 -1.476,-3.048 -2.657,-4.327 -1.389,-1.499 -2.942,-2.631 -4.659,-3.395 -1.714,-0.763 -3.575,-1.144 -5.58,-1.144 -2.016,0 -3.877,0.39 -5.58,1.162 -1.703,0.777 -3.231,1.925 -4.584,3.451 -1.144,1.265 -2.011,2.709 -2.602,4.326 -0.59,1.618 -0.886,3.348 -0.886,5.193"
           inkscape:connector-curvature="0" />
      </g>
      <g
         transform="matrix(1.25,0,0,-1.25,217.98539,726.68745)"
         id="g3187">
        <path
           id="path3189"
           style="fill:#737577;fill-opacity:1;fill-rule:nonzero;stroke:none"
           d="m 0,0 -3.891,0 0,26.862 3.891,0 0,-11.401 10.958,0 0,11.401 3.893,0 0,-26.862 -3.893,0 0,11.643 L 0,11.643 0,0 z"
           inkscape:connector-curvature="0" />
      </g>
      <g
         transform="matrix(1.25,0,0,-1.25,259.84026,726.68745)"
         id="g3191">
        <path
           id="path3193"
           style="fill:#737577;fill-opacity:1;fill-rule:nonzero;stroke:none"
           d="m 0,0 -13.946,0 0,26.862 13.946,0 0,-3.579 -10.054,0 0,-8.024 10.054,0 0,-3.506 -10.054,0 0,-8.042 L 0,3.711 0,0 z"
           inkscape:connector-curvature="0" />
      </g>
      <g
         transform="matrix(1.25,0,0,-1.25,270.65626,710.5412)"
         id="g3195">
        <path
           id="path3197"
           style="fill:#737577;fill-opacity:1;fill-rule:nonzero;stroke:none"
           d="M 0,0 1.991,0 C 4.685,0 6.689,0.434 8.006,1.307 9.321,2.182 9.979,3.51 9.979,5.292 9.979,7.026 9.415,8.299 8.283,9.111 7.151,9.923 5.362,10.329 2.914,10.329 L 0,10.329 0,0 z m 0,-12.917 -3.893,0 0,26.862 7.748,0 c 3.224,0 5.683,-0.745 7.379,-2.231 1.697,-1.49 2.545,-3.64 2.545,-6.459 0,-2.188 -0.71,-4.018 -2.13,-5.488 -1.42,-1.469 -3.249,-2.26 -5.488,-2.372 l 7.618,-10.312 -4.87,0 L 0,-0.443 0,-12.917 z"
           inkscape:connector-curvature="0" />
      </g>
      <g
         transform="matrix(1.25,0,0,-1.25,296.96789,722.18908)"
         id="g3199">
        <path
           id="path3201"
           style="fill:#737577;fill-opacity:1;fill-rule:nonzero;stroke:none"
           d="m 0,0 4.722,0 c 2.989,0 5.353,0.87 7.094,2.609 1.739,1.742 2.61,4.104 2.61,7.096 0,3.098 -0.922,5.521 -2.767,7.267 -1.845,1.747 -4.396,2.622 -7.658,2.622 L 0,19.594 0,0 z m 3.762,-3.599 -7.544,0 0,26.863 8.651,0 c 4.034,0 7.29,-1.249 9.768,-3.746 2.478,-2.497 3.718,-5.756 3.718,-9.777 0,-2.287 -0.464,-4.371 -1.393,-6.255 C 16.034,1.604 14.696,0.039 12.951,-1.216 11.77,-2.065 10.508,-2.674 9.169,-3.044 7.827,-3.415 6.027,-3.599 3.762,-3.599"
           inkscape:connector-curvature="0" />
      </g>
      <path
         id="path3203"
         style="fill:#737577;fill-opacity:1;fill-rule:nonzero;stroke:none"
         d="m 329.25189,726.68745 -4.865,0 0,-33.5775 4.865,0 0,33.5775 z"
         inkscape:connector-curvature="0" />
      <g
         transform="matrix(1.25,0,0,-1.25,379.56989,726.68745)"
         id="g3205">
        <path
           id="path3207"
           style="fill:#aaacae;fill-opacity:1;fill-rule:nonzero;stroke:none"
           d="m 0,0 -13.947,0 0,26.862 13.947,0 0,-3.579 -10.055,0 0,-8.024 10.055,0 0,-3.506 -10.055,0 0,-8.042 L 0,3.711 0,0 z"
           inkscape:connector-curvature="0" />
      </g>
      <g
         transform="matrix(1.25,0,0,-1.25,401.38626,726.68745)"
         id="g3209">
        <path
           id="path3211"
           style="fill:#aaacae;fill-opacity:1;fill-rule:nonzero;stroke:none"
           d="m 0,0 -12.694,0 0,26.862 3.894,0 0,-23.151 8.8,0 L 0,0 z"
           inkscape:connector-curvature="0" />
      </g>
      <g
         transform="matrix(1.25,0,0,-1.25,422.73876,726.68745)"
         id="g3213">
        <path
           id="path3215"
           style="fill:#aaacae;fill-opacity:1;fill-rule:nonzero;stroke:none"
           d="m 0,0 -13.946,0 0,26.862 13.946,0 0,-3.579 -10.055,0 0,-8.024 10.055,0 0,-3.506 -10.055,0 0,-8.042 L 0,3.711 0,0 z"
           inkscape:connector-curvature="0" />
      </g>
      <g
         transform="matrix(1.25,0,0,-1.25,459.24389,718.26945)"
         id="g3217">
        <path
           id="path3219"
           style="fill:#aaacae;fill-opacity:1;fill-rule:nonzero;stroke:none"
           d="m 0,0 c -1.168,-2.348 -2.785,-4.146 -4.846,-5.396 -2.058,-1.248 -4.449,-1.873 -7.166,-1.873 -2.018,0 -3.878,0.39 -5.579,1.163 -1.703,0.776 -3.231,1.924 -4.586,3.45 -1.143,1.265 -2.01,2.709 -2.599,4.326 -0.59,1.618 -0.886,3.349 -0.886,5.193 0,1.87 0.356,3.644 1.069,5.323 0.713,1.677 1.761,3.207 3.137,4.583 1.304,1.281 2.752,2.249 4.344,2.907 1.591,0.657 3.304,0.987 5.138,0.987 2.753,0 5.174,-0.652 7.26,-1.957 C -2.629,17.404 -1.059,15.56 0,13.173 l -4.575,0 c -0.862,1.191 -1.921,2.091 -3.173,2.693 -1.256,0.603 -2.677,0.903 -4.264,0.903 -1.266,0 -2.471,-0.24 -3.614,-0.717 -1.145,-0.482 -2.16,-1.175 -3.046,-2.085 -0.92,-0.948 -1.641,-2.05 -2.155,-3.305 -0.519,-1.253 -0.776,-2.533 -0.776,-3.836 0,-1.404 0.233,-2.728 0.701,-3.976 0.467,-1.246 1.137,-2.327 2.009,-3.236 0.921,-0.96 1.987,-1.705 3.194,-2.234 1.204,-0.528 2.433,-0.792 3.687,-0.792 1.538,0 2.926,0.291 4.162,0.877 1.236,0.583 2.253,1.428 3.052,2.535 L 0,0 z"
           inkscape:connector-curvature="0" />
      </g>
      <g
         transform="matrix(1.25,0,0,-1.25,472.77914,726.68745)"
         id="g3221">
        <path
           id="path3223"
           style="fill:#aaacae;fill-opacity:1;fill-rule:nonzero;stroke:none"
           d="m 0,0 -3.891,0 0,23.246 -5.019,0 0,3.616 13.928,0 0,-3.616 L 0,23.246 0,0 z"
           inkscape:connector-curvature="0" />
      </g>
      <g
         transform="matrix(1.25,0,0,-1.25,487.19189,710.5412)"
         id="g3225">
        <path
           id="path3227"
           style="fill:#aaacae;fill-opacity:1;fill-rule:nonzero;stroke:none"
           d="m 0,0 1.992,0 c 2.693,0 4.697,0.434 6.015,1.307 1.315,0.875 1.974,2.203 1.974,3.985 0,1.734 -0.566,3.007 -1.7,3.819 -1.132,0.812 -2.92,1.218 -5.365,1.218 L 0,10.329 0,0 z m 0,-12.917 -3.894,0 0,26.862 7.749,0 c 3.223,0 5.681,-0.745 7.379,-2.231 1.698,-1.49 2.547,-3.64 2.547,-6.459 0,-2.188 -0.711,-4.018 -2.133,-5.488 C 10.229,-1.702 8.4,-2.493 6.16,-2.605 l 7.621,-10.312 -4.871,0 L 0,-0.443 0,-12.917 z"
           inkscape:connector-curvature="0" />
      </g>
      <g
         transform="matrix(1.25,0,0,-1.25,512.55814,709.7367)"
         id="g3229">
        <path
           id="path3231"
           style="fill:#aaacae;fill-opacity:1;fill-rule:nonzero;stroke:none"
           d="m 0,0 c 0,-1.404 0.231,-2.729 0.7,-3.977 0.469,-1.246 1.139,-2.326 2.011,-3.235 0.923,-0.96 1.985,-1.705 3.192,-2.234 1.203,-0.529 2.435,-0.792 3.688,-0.792 2.782,0 5.106,0.987 6.974,2.961 1.872,1.974 2.806,4.423 2.806,7.35 0,1.244 -0.225,2.426 -0.676,3.554 -0.447,1.123 -1.101,2.16 -1.963,3.108 -1.019,1.093 -2.11,1.903 -3.275,2.423 C 12.295,9.682 11.006,9.942 9.591,9.942 8.327,9.942 7.12,9.703 5.978,9.226 4.834,8.744 3.819,8.051 2.934,7.141 2.009,6.192 1.292,5.091 0.773,3.836 0.26,2.583 0,1.303 0,0 m -4.059,0.037 c 0,1.881 0.357,3.665 1.07,5.35 0.713,1.685 1.759,3.204 3.136,4.555 1.305,1.282 2.752,2.249 4.344,2.908 1.594,0.657 3.307,0.987 5.137,0.987 1.883,0 3.626,-0.33 5.233,-0.987 1.603,-0.659 3.07,-1.639 4.398,-2.944 1.365,-1.34 2.393,-2.841 3.083,-4.5 0.688,-1.661 1.032,-3.451 1.032,-5.369 0,-1.907 -0.296,-3.662 -0.886,-5.266 -0.59,-1.605 -1.475,-3.048 -2.656,-4.327 -1.39,-1.499 -2.944,-2.631 -4.659,-3.395 -1.716,-0.763 -3.575,-1.144 -5.582,-1.144 -2.016,0 -3.875,0.39 -5.579,1.162 -1.704,0.777 -3.232,1.925 -4.584,3.451 -1.145,1.265 -2.011,2.709 -2.601,4.326 -0.59,1.618 -0.886,3.348 -0.886,5.193"
           inkscape:connector-curvature="0" />
      </g>
      <g
         transform="matrix(1.25,0,0,-1.25,551.04452,726.68745)"
         id="g3233">
        <path
           id="path3235"
           style="fill:#aaacae;fill-opacity:1;fill-rule:nonzero;stroke:none"
           d="m 0,0 -3.892,0 0,26.862 4.004,0 13.19,-20.33 -0.186,20.33 3.839,0 L 16.955,0 13.229,0 -0.257,20.939 0,0 z"
           inkscape:connector-curvature="0" />
      </g>
      <path
         id="path3237"
         style="fill:#aaacae;fill-opacity:1;fill-rule:nonzero;stroke:none"
         d="m 582.95939,726.68745 -4.86625,0 0,-33.5775 4.86625,0 0,33.5775 z"
         inkscape:connector-curvature="0" />
      <g
         transform="matrix(1.25,0,0,-1.25,619.37214,718.26945)"
         id="g3239">
        <path
           id="path3241"
           style="fill:#aaacae;fill-opacity:1;fill-rule:nonzero;stroke:none"
           d="m 0,0 c -1.168,-2.348 -2.779,-4.146 -4.843,-5.396 -2.058,-1.248 -4.447,-1.873 -7.167,-1.873 -2.015,0 -3.877,0.39 -5.579,1.163 -1.704,0.776 -3.233,1.924 -4.584,3.45 -1.144,1.265 -2.013,2.709 -2.602,4.326 -0.59,1.618 -0.886,3.349 -0.886,5.193 0,1.87 0.356,3.644 1.069,5.323 0.715,1.677 1.761,3.207 3.139,4.583 1.303,1.281 2.75,2.249 4.344,2.907 1.591,0.657 3.304,0.987 5.136,0.987 2.756,0 5.173,-0.652 7.26,-1.957 C -2.629,17.404 -1.059,15.56 0,13.173 l -4.574,0 c -0.863,1.191 -1.919,2.091 -3.174,2.693 -1.255,0.603 -2.676,0.903 -4.262,0.903 -1.265,0 -2.47,-0.24 -3.613,-0.717 -1.148,-0.482 -2.16,-1.175 -3.046,-2.085 -0.923,-0.948 -1.642,-2.05 -2.158,-3.305 -0.516,-1.253 -0.776,-2.533 -0.776,-3.836 0,-1.404 0.236,-2.728 0.703,-3.976 0.466,-1.246 1.133,-2.327 2.008,-3.236 0.925,-0.96 1.988,-1.705 3.191,-2.234 1.208,-0.528 2.438,-0.792 3.691,-0.792 1.538,0 2.925,0.291 4.16,0.877 1.237,0.583 2.256,1.428 3.053,2.535 L 0,0 z"
           inkscape:connector-curvature="0" />
      </g>
      <g
         transform="matrix(1.25,0,0,-1.25,640.14976,712.18058)"
         id="g3243">
        <path
           id="path3245"
           style="fill:#aaacae;fill-opacity:1;fill-rule:nonzero;stroke:none"
           d="M 0,0 -3.782,10.202 -7.636,0 0,0 z m -9.021,-3.782 -3.026,-7.823 -4.112,0 10.495,26.862 3.782,0 10.498,-26.862 -4.262,0 -2.951,7.823 -10.424,0 z"
           inkscape:connector-curvature="0" />
      </g>
      <g
         transform="matrix(1.25,0,0,-1.25,95.15464,682.22333)"
         id="g3247">
        <path
           id="path3249"
           style="fill:#737577;fill-opacity:1;fill-rule:nonzero;stroke:none"
           d="m 0,0 c -0.634,-0.385 -1.974,-1.579 -2.082,-3.599 -0.172,-1.092 1.138,-3.63 2.716,-4.119 0.612,-0.226 2.195,-0.339 4.753,-0.339 6.541,0 10.955,-0.723 13.287,-2.216 1.335,-0.838 2.014,-2.063 2.014,-3.646 0,-1.607 -1.041,-2.694 -3.078,-3.281 -1.313,-0.408 -3.667,-0.657 -7.062,-0.817 -3.735,-0.158 -6.315,-0.384 -7.787,-0.678 -2.195,-0.43 -3.779,-1.177 -4.73,-2.216 -0.832,-0.905 -0.431,-2.729 -0.208,-3.506 0.066,-0.229 0.301,-0.568 0.402,-0.663 0.973,-0.936 2.487,-1.624 4.559,-2.035 1.449,-0.293 4.051,-0.521 7.786,-0.678 3.395,-0.137 5.75,-0.408 7.062,-0.793 2.037,-0.59 3.056,-1.697 3.079,-3.305 -0.023,-1.583 -0.679,-2.784 -2.015,-3.644 -2.331,-1.473 -6.768,-2.22 -13.286,-2.22 -2.558,0.024 -4.142,-0.089 -4.754,-0.315 -0.877,-0.325 -2.974,-2.003 -2.716,-4.141 0,-0.454 0.827,-2.689 2.082,-3.577 0.544,-0.34 1.178,-0.588 1.902,-0.793 l 26.143,0 c 1.019,0.432 1.743,1.062 2.195,1.903 l 0,21.819 -0.022,0 0,21.727 c -0.566,1.112 -1.63,1.836 -3.191,2.221 l -23.224,0 C 2.241,0.95 0.973,0.59 0,0"
           inkscape:connector-curvature="0" />
      </g>
      <g
         transform="matrix(1.25,0,0,-1.25,51.28064,749.0812)"
         id="g3251">
        <path
           id="path3253"
           style="fill:#737577;fill-opacity:1;fill-rule:nonzero;stroke:none"
           d="m 0,0 c -0.599,-0.212 -1.321,-0.458 -2.135,-0.722 -0.973,-0.363 -1.653,-0.702 -2.037,-1.063 -1.608,-1.403 -1.743,-2.672 -0.43,-3.779 9.257,-7.926 19.104,-12.541 29.583,-13.853 1.857,-0.251 3.712,-0.365 5.591,-0.387 l 0.045,0 c 1.856,0.022 3.713,0.136 5.569,0.387 10.457,1.312 20.326,5.927 29.583,13.853 1.314,1.107 1.177,2.376 -0.408,3.779 -0.406,0.361 -1.086,0.7 -2.059,1.063 -0.859,0.279 -3.946,1.197 -4.955,1.257 -0.024,0.004 -0.202,0.018 -0.271,0.02 -3.983,0.194 -13.15,0.214 -27.459,0.103 l -0.045,0 C 16.21,0.769 7.061,0.749 3.083,0.555 3.017,0.553 2.829,0.531 2.78,0.522 2.389,0.457 1.251,0.358 0.335,0.109 0.288,0.097 0.067,0.023 0,0"
           inkscape:connector-curvature="0" />
      </g>
    </g>
  </g>
</svg>
